HIERARCHY
ROOT SpineBase
{
  OFFSET 0.000000 0.000000 0.000000
  CHANNELS 6 Xposition Yposition Zposition Zrotation Xrotation Yrotation
  JOINT SpineMid
  {
    OFFSET 0.000000 33.599335 0.000000
    CHANNELS 3 Zrotation Xrotation Yrotation
    JOINT SpineShoulder
    {
      OFFSET 0.044141 24.796729 -0.846482
      CHANNELS 3 Zrotation Xrotation Yrotation
      JOINT Neck
      {
        OFFSET 0.064257 8.143424 -0.603630
        CHANNELS 3 Zrotation Xrotation Yrotation
        JOINT Head
        {
          OFFSET -2.096316 13.391785 7.738928
          CHANNELS 3 Zrotation Xrotation Yrotation
          End Site
          {
            OFFSET 0 0 0
          }
        }
      }
      JOINT ShoulderLeft
      {
        OFFSET 9.092789 -5.159932 -13.443175
        CHANNELS 3 Zrotation Xrotation Yrotation
        JOINT ElbowLeft
        {
          OFFSET 5.068413 -26.365612 -5.882520
          CHANNELS 3 Zrotation Xrotation Yrotation
          JOINT WristLeft
          {
            OFFSET 5.814023 -21.496237 0.587660
            CHANNELS 3 Zrotation Xrotation Yrotation
            JOINT HandLeft
            {
              OFFSET 0.354075 -7.225047 -0.948789
              CHANNELS 3 Zrotation Xrotation Yrotation
              JOINT HandTipLeft
              {
                OFFSET 0.799029 -6.375939 -0.049640
                CHANNELS 3 Zrotation Xrotation Yrotation
                End Site
                {
                  OFFSET 0 0 0
                }
              }
              JOINT ThumbLeft
              {
                OFFSET 1.933561 -3.037867 -0.069517
                CHANNELS 3 Zrotation Xrotation Yrotation
                End Site
                {
                  OFFSET 0 0 0
                }
              }
            }
          }
        }
      }
      JOINT ShoulderRight
      {
        OFFSET 8.606379 -4.885032 15.704463
        CHANNELS 3 Zrotation Xrotation Yrotation
        JOINT ElbowRight
        {
          OFFSET 4.598962 -20.364448 -23.525561
          CHANNELS 3 Zrotation Xrotation Yrotation
          JOINT WristRight
          {
            OFFSET 5.747165 -27.922602 -11.245200
            CHANNELS 3 Zrotation Xrotation Yrotation
            JOINT HandRight
            {
              OFFSET 1.439436 -8.831429 -0.490680
              CHANNELS 3 Zrotation Xrotation Yrotation
              JOINT HandTipRight
              {
                OFFSET -0.379279 -6.694092 -0.003516
                CHANNELS 3 Zrotation Xrotation Yrotation
                End Site
                {
                  OFFSET 0 0 0
                }
              }
              JOINT ThumbRight
              {
                OFFSET -1.954123 -5.451159 -1.943368
                CHANNELS 3 Zrotation Xrotation Yrotation
                End Site
                {
                  OFFSET 0 0 0
                }
              }
            }
          }
        }
      }
    }
  }
  JOINT HipLeft
  {
    OFFSET 0.635506 0.456788 -4.142713
    CHANNELS 3 Zrotation Xrotation Yrotation
    JOINT KneeLeft
    {
      OFFSET -9.927014 -38.057612 2.741671
      CHANNELS 3 Zrotation Xrotation Yrotation
      JOINT AnkleLeft
      {
        OFFSET -0.762820 -35.360843 0.125070
        CHANNELS 3 Zrotation Xrotation Yrotation
        JOINT FootLeft
        {
          OFFSET 11.048857 -4.295477 -2.650212
          CHANNELS 3 Zrotation Xrotation Yrotation
          End Site
          {
            OFFSET 0 0 0
          }
        }
      }
    }
  }
  JOINT HipRight
  {
    OFFSET 0.484274 0.114748 -3.203498
    CHANNELS 3 Zrotation Xrotation Yrotation
    JOINT KneeRight
    {
      OFFSET 13.333477 -38.876322 0.814504
      CHANNELS 3 Zrotation Xrotation Yrotation
      JOINT AnkleRight
      {
        OFFSET 7.119474 -33.280842 8.675092
        CHANNELS 3 Zrotation Xrotation Yrotation
        JOINT FootRight
        {
          OFFSET 10.714603 -4.311893 -2.712139
          CHANNELS 3 Zrotation Xrotation Yrotation
          End Site
          {
            OFFSET 0 0 0
          }
        }
      }
    }
  }
}
MOTION
Frames: 7
Frame Time: 0.033333
-34.730228 82.745460 305.905654 3.407118 -1.619793 19.749227 -0.680961 0.520141 -19.603328 -0.213805 0.117178 0.095137 -8.300030 1.704805 3.510273 0.000000 0.000000 0.000000 -53.837793 -38.318922 -17.242661 -12.164577 -13.516004 -27.461041 -7.040671 -56.894026 2.119650 -38.417381 -5.891322 102.015721 0.000000 0.000000 0.000000 0.000000 0.000000 0.000000 2.969546 0.589278 -6.536358 4.066204 -7.445973 1.630754 6.020654 21.288373 3.153520 -2.348366 -18.133005 1.110252 0.000000 0.000000 0.000000 0.000000 0.000000 0.000000 3.650626 -17.730124 -13.246294 -26.800291 32.530394 2.628915 -5.645989 -9.713894 36.576677 0.000000 0.000000 0.000000 -18.121359 8.006380 -18.542702 -7.579154 5.176102 -3.972590 10.911352 6.656953 48.863777 0.000000 0.000000 0.000000
-32.821390 83.343003 305.940092 3.944241 -1.239047 20.912524 -0.750987 0.522756 -20.758300 -0.223405 0.096510 0.110662 -8.040691 1.807203 3.087804 0.000000 0.000000 0.000000 -53.016212 -39.969069 -18.641784 -21.409841 -21.018373 -33.864704 2.041517 -49.168212 13.020263 -26.978138 -5.584969 40.724272 0.000000 0.000000 0.000000 0.000000 0.000000 0.000000 2.638162 -0.802722 -6.952444 5.285113 -8.934224 1.215767 6.726573 18.430312 3.039705 -4.400829 -15.927256 2.024561 0.000000 0.000000 0.000000 0.000000 0.000000 0.000000 4.715078 -16.293564 -14.773793 -25.066277 27.792680 1.021808 -12.871714 -11.585159 26.196049 0.000000 0.000000 0.000000 -20.804855 9.081808 -19.367671 -5.812545 5.002362 -4.163671 8.733557 5.983591 52.998508 0.000000 0.000000 0.000000
-31.095901 83.846359 306.004242 4.206734 -0.870497 21.825795 -0.760550 0.510905 -21.676434 -0.216607 0.084322 0.118826 -7.312559 2.317604 2.590649 0.000000 0.000000 0.000000 -55.098877 -43.983828 -23.137893 -26.799440 -24.093163 -36.414812 8.576395 -37.231055 19.768398 -24.686643 -5.454898 20.146632 0.000000 0.000000 0.000000 0.000000 0.000000 0.000000 2.222114 -4.635584 -7.684021 6.452607 -8.717021 0.794539 6.050935 13.163734 3.413787 -1.761744 -6.106549 2.698285 0.000000 0.000000 0.000000 0.000000 0.000000 0.000000 8.257623 -13.213104 -16.560243 -26.129586 19.334497 0.015881 -20.418287 -12.217930 12.880398 0.000000 0.000000 0.000000 -24.301458 10.248020 -19.892587 -1.827605 5.373154 -3.756620 3.848459 3.774527 58.749978 0.000000 0.000000 0.000000
-29.592954 84.182786 306.145486 4.350611 -0.559808 22.654834 -0.766247 0.520507 -22.514470 -0.203561 0.076362 0.122829 -6.991945 2.337692 2.329247 0.000000 0.000000 0.000000 -53.437412 -46.803671 -25.423320 -34.834976 -30.389833 -42.002633 12.132285 -25.335233 27.844265 -24.541512 -4.370392 17.459699 0.000000 0.000000 0.000000 0.000000 0.000000 0.000000 1.556120 -10.749970 -8.749010 7.764029 -7.002118 0.089693 5.707221 11.351164 3.811460 -2.709178 -2.691100 3.594465 0.000000 0.000000 0.000000 0.000000 0.000000 0.000000 12.824835 -9.424653 -18.772351 -29.206452 9.846552 -0.668597 -26.484351 -11.567269 -0.254019 0.000000 0.000000 0.000000 -30.692118 11.396704 -20.395587 5.748033 10.827177 -0.777559 -3.223087 -3.805291 63.753042 0.000000 0.000000 0.000000
-28.353755 84.425177 306.363110 4.281764 -0.328359 23.520450 -0.671422 0.502095 -23.391502 -0.184475 0.076873 0.123233 -7.193347 3.010034 2.562951 0.000000 0.000000 0.000000 -59.152309 -52.866293 -34.379586 -31.868353 -29.746548 -37.969867 13.635637 -16.960143 29.082552 -26.914044 -7.510788 18.483907 0.000000 0.000000 0.000000 0.000000 0.000000 0.000000 0.856331 -17.195492 -10.024620 8.626195 -4.733094 -0.556077 4.594826 3.629754 4.563433 -3.500042 4.198432 5.245550 0.000000 0.000000 0.000000 0.000000 0.000000 0.000000 17.383312 -5.378865 -21.536324 -31.791765 -0.225132 -1.641161 -29.663197 -9.181545 -8.520575 0.000000 0.000000 0.000000 -33.347086 12.039575 -21.119701 9.407242 11.849244 -0.120871 -10.857950 -9.119164 70.566513 0.000000 0.000000 0.000000
-27.468900 84.544441 306.523592 3.786552 -0.117846 23.502066 -0.488695 0.425430 -23.394107 -0.108389 0.062380 0.116057 -6.535084 4.033497 2.512043 0.000000 0.000000 0.000000 -73.558959 -58.098804 -49.951914 -26.424211 -26.594777 -35.079238 14.521754 -12.342833 30.723641 -28.234068 -8.179913 25.306323 0.000000 0.000000 0.000000 0.000000 0.000000 0.000000 0.166978 -24.640404 -11.772667 8.992019 -1.838751 -1.019564 5.097249 4.131278 4.637136 -5.425039 5.108464 6.620402 0.000000 0.000000 0.000000 0.000000 0.000000 0.000000 21.719924 -2.391414 -23.148371 -35.345705 -7.828059 -2.748635 -28.286941 -6.931059 -9.929337 0.000000 0.000000 0.000000 -33.832432 11.628201 -21.407997 11.554021 9.741288 -0.794035 -18.173003 -12.986623 78.061063 0.000000 0.000000 0.000000
-26.939060 84.385513 306.863630 2.991761 0.093777 26.606262 -0.157636 0.356070 -26.523641 0.026918 0.074720 0.105333 -5.387517 2.483913 1.817594 0.000000 0.000000 0.000000 -76.828808 -60.428473 -56.147631 -20.412792 -26.102058 -34.750156 14.783225 -7.583870 27.741051 -32.220386 -13.917850 35.822520 0.000000 0.000000 0.000000 0.000000 0.000000 0.000000 -0.636948 -31.762598 -13.669434 9.213636 1.021675 -1.471020 5.032326 11.272728 4.587838 -5.836923 -0.814936 7.106121 0.000000 0.000000 0.000000 0.000000 0.000000 0.000000 24.872364 -0.812503 -27.682759 -37.819535 -14.715032 -4.051060 -37.063557 -6.490429 -6.657968 0.000000 0.000000 0.000000 -31.513006 12.040019 -24.834703 11.686495 5.358187 -2.285969 -23.747777 -15.353942 85.570385 0.000000 0.000000 0.000000
